# xmcd
#
# Track frame offsets: 
#        150
#        16206
#        29962
#        46759
#        53468
#        82700
#        85362
#        99510
#        113525
#        125810
#        136239
#        150302
#        165387
#        175928
#        190361
#        204283
#        215612
#        230508
#        240320
#        253007
#        262913
#        277980
#        287180
#        300947
#        317074
#
# Disc length: 4268 seconds
#
# Revision: 0
# Processed by: cddbd v1.5.1PL2 Copyright (c) Steve Scherf et al.
# Submitted via: ExactAudioCopy v0.95a5
#
DISCID=4310aa19
DTITLE=Weber Brothers - 149 Lake Street
DYEAR=2002
DGENRE=Blues
TTITLE0=Back To Chicago
TTITLE1=Hughes' House
TTITLE2=I'm Thinking Of You
TTITLE3=Country Boy
TTITLE4=Love Keeps Escaping/ I Want To Follow You
TTITLE5=Madeline
TTITLE6=You Are My Delight
TTITLE7=One More Day
TTITLE8=Pages Turn
TTITLE9=Yes, We're Moving Again
TTITLE10=Struggle, Struggle, Struggle
TTITLE11=Next Time I See You
TTITLE12=Mama Let The Train Roll In
TTITLE13=Alabama Rattle
TTITLE14=All I Can Say
TTITLE15=Petunia
TTITLE16=Look To The Sky
TTITLE17=Diana (Love Beneath The Grapevines)
TTITLE18=Rest Now Child
TTITLE19=Randy's Blues
TTITLE20=Shave Your Sheep
TTITLE21=Melissa
TTITLE22=End Of The Line (Richard William Weber)
TTITLE23=Morning's Bound To Come
TTITLE24=Crappy Birthday, Fuck You
EXTD=
EXTT0=
EXTT1=
EXTT2=
EXTT3=
EXTT4=
EXTT5=
EXTT6=
EXTT7=
EXTT8=
EXTT9=
EXTT10=
EXTT11=
EXTT12=
EXTT13=
EXTT14=
EXTT15=
EXTT16=
EXTT17=
EXTT18=
EXTT19=
EXTT20=
EXTT21=
EXTT22=
EXTT23=
EXTT24=
PLAYORDER=
